<?xml version="1.0" encoding="utf-8"?>
<!-- Generator: Adobe Illustrator 16.0.0, SVG Export Plug-In . SVG Version: 6.00 Build 0)  -->
<!DOCTYPE svg PUBLIC "-//W3C//DTD SVG 1.1//EN" "http://www.w3.org/Graphics/SVG/1.1/DTD/svg11.dtd">
<svg version="1.1" id="Layer_1" xmlns="http://www.w3.org/2000/svg" xmlns:xlink="http://www.w3.org/1999/xlink" x="0px" y="0px"
	 width="59.583px" height="61px" viewBox="0 0 59.583 61" enable-background="new 0 0 59.583 61" xml:space="preserve">
<path fill="#FF0101" d="M29.598,57.703c15.794,0,28.598-12.918,28.598-28.852S45.393,0,29.598,0S1,12.917,1,28.852
	C1,44.785,13.804,57.703,29.598,57.703z"/>
<path fill="#020203" d="M41.917,16.423c2.639,0,4.777-2.157,4.777-4.819s-2.139-4.819-4.777-4.819c-2.638,0-4.776,2.158-4.776,4.819
	S39.279,16.423,41.917,16.423z"/>
<defs>
	<filter id="Adobe_OpacityMaskFilter" filterUnits="userSpaceOnUse" x="0.06" y="11.093" width="52.421" height="49.84">
		<feColorMatrix  type="matrix" values="1 0 0 0 0  0 1 0 0 0  0 0 1 0 0  0 0 0 1 0"/>
	</filter>
</defs>
<mask maskUnits="userSpaceOnUse" x="0.06" y="11.093" width="52.421" height="49.84" id="mask0_48:1">
	<path fill="#FF0101" filter="url(#Adobe_OpacityMaskFilter)" d="M29.598,57.703c15.794,0,28.598-12.918,28.598-28.852
		S45.393,0,29.598,0S1,12.917,1,28.852C1,44.785,13.804,57.703,29.598,57.703z"/>
</mask>
<g mask="url(#mask0_48:1)">
	<path fill="#020203" d="M40.536,29.422c0.313,0.507,0.879,0.824,1.508,0.824c0.313,0,0.627-0.063,0.942-0.253l8.611-5.2
		c0.88-0.507,1.131-1.648,0.628-2.473c-0.502-0.888-1.635-1.142-2.451-0.634l-7.165,4.312l-3.457-6.785
		c-0.942-0.951-2.011-1.902-3.08-2.727l-10.245-5.199c-0.691-0.317-1.446-0.254-2.011,0.253l-8.548,7.799
		c-0.754,0.698-0.817,1.839-0.125,2.537c0.691,0.761,1.823,0.824,2.514,0.126l7.731-6.975l5.342,2.727l-9.176,14.331L0.623,57.068
		c-0.817,0.951-0.754,2.473,0.251,3.297c0.942,0.824,2.451,0.762,3.268-0.254l20.302-23.65l8.736,2.029l-5.971,9.447
		c-0.629,1.142-0.251,2.537,0.88,3.17c1.005,0.57,2.326,0.317,3.017-0.697l7.668-12.238c0.439-0.633,0.503-1.458,0.251-2.154
		c-0.313-0.697-0.88-1.205-1.634-1.332L30.667,33.1l6.098-9.638L40.536,29.422z"/>
</g>
</svg>
